<?xml version="1.0" encoding="utf-8"?>
<!-- Generator: Adobe Illustrator 26.0.1, SVG Export Plug-In . SVG Version: 6.00 Build 0)  -->
<svg version="1.1" id="Layer_1" xmlns="http://www.w3.org/2000/svg" xmlns:xlink="http://www.w3.org/1999/xlink" x="0px" y="0px"
	 viewBox="0 0 297.72 156.78" style="enable-background:new 0 0 297.72 156.78;" xml:space="preserve">
<style type="text/css">
	.st0{fill:#D86461;}
	.st1{fill:#D8E6E6;}
	.st2{fill:#ABD5D5;}
	.st3{fill:#7BA6A8;}
	.st4{fill:#C0DEE1;}
	.st5{fill:#59826E;}
	.st6{fill:#E8F3F4;}
</style>
<g>
	<g>
		<rect x="0.5" y="0.5" class="st0" width="72" height="72"/>
		<path d="M73,73H0V0h73V73z M1,72h71V1H1V72z"/>
	</g>
	<g>
		<rect x="72.07" y="0.5" class="st1" width="72" height="72"/>
		<path d="M144.57,73h-73V0h73V73z M72.57,72h71V1h-71V72z"/>
	</g>
	<g>
		<rect x="144.07" y="0.5" class="st2" width="72" height="72"/>
		<path d="M216.57,73h-73V0h73V73z M144.57,72h71V1h-71V72z"/>
	</g>
	<g>
		<rect x="216.07" y="0.5" class="st3" width="72" height="72"/>
		<path d="M288.57,73h-73V0h73V73z M216.57,72h71V1h-71V72z"/>
	</g>
	<g>
		<rect x="0.5" y="72.5" class="st4" width="72" height="72"/>
		<path d="M73,145H0V72h73V145z M1,144h71V73H1V144z"/>
	</g>
	<g>
		<rect x="72.07" y="72.5" class="st5" width="72" height="72"/>
		<path d="M144.57,145h-73V72h73V145z M72.57,144h71V73h-71V144z"/>
	</g>
	<g>
		<rect x="144.07" y="72.5" class="st6" width="72" height="72"/>
		<path d="M216.57,145h-73V72h73V145z M144.57,144h71V73h-71V144z"/>
	</g>
	<g>
		<path d="M31.94,18.94H13.38v-8.8H60.9v8.8H42.34v47.2h-10.4V18.94z"/>
	</g>
	<g>
		<path d="M122.33,66.14l-11.44-16.4c-0.72,0.08-1.44,0.08-2.16,0.08H96.09v16.32h-10.4v-56h23.04c14.72,0,23.84,7.52,23.84,19.92
			c0,8.48-4.32,14.72-11.92,17.68l12.88,18.4H122.33z M108.25,18.94H96.09v22.32h12.16c9.12,0,13.84-4.16,13.84-11.2
			S117.37,18.94,108.25,18.94z"/>
	</g>
	<g>
		<path d="M193.34,53.18h-28l-5.52,12.96h-10.72l25.2-56h10.24l25.28,56h-10.88L193.34,53.18z M189.9,45.02l-10.56-24.48
			l-10.48,24.48H189.9z"/>
	</g>
	<g>
		<path d="M278.99,30.06c0,12.32-9.12,19.92-23.84,19.92h-12.64v16.16h-10.4v-56h23.04C269.87,10.14,278.99,17.66,278.99,30.06z
			 M268.51,30.06c0-7.04-4.72-11.12-13.84-11.12h-12.16v22.24h12.16C263.79,41.18,268.51,37.1,268.51,30.06z"/>
	</g>
	<g>
		<path d="M59.8,80.18v56H49.4v-24H20.44v24h-10.4v-56h10.4v23.12H49.4V80.18H59.8z"/>
	</g>
	<g>
		<path d="M77.47,108.18c0-16.56,12.8-28.8,30.16-28.8s30.16,12.16,30.16,28.8c0,16.64-12.8,28.8-30.16,28.8
			S77.47,124.74,77.47,108.18z M127.31,108.18c0-11.44-8.4-19.68-19.68-19.68s-19.68,8.24-19.68,19.68
			c0,11.44,8.4,19.68,19.68,19.68S127.31,119.62,127.31,108.18z"/>
	</g>
	<g>
		<path d="M162.02,80.98h10.4v47.2h29.28v8.8h-39.68V80.98z"/>
	</g>
	<g>
		<g>
			<rect x="222.75" y="81.82" transform="matrix(0.9975 0.07 -0.07 0.9975 8.8822 -17.8244)" class="st0" width="72" height="72"/>
			<path d="M292.61,156.78l-72.82-5.11l5.11-72.82l72.82,5.11L292.61,156.78z M220.86,150.74l70.83,4.97l4.97-70.83l-70.83-4.97
				L220.86,150.74z"/>
		</g>
		<g>
			<path d="M255.6,98.16l-18.51-1.3l0.62-8.78l47.4,3.33l-0.62,8.78l-18.51-1.3l-3.3,47.09l-10.37-0.73L255.6,98.16z"/>
		</g>
	</g>
</g>
</svg>
